<svg width="41" height="41" viewBox="0 0 41 41" fill="none" xmlns="http://www.w3.org/2000/svg">
<path d="M20.3333 27.1667H21.9999C23.111 27.1667 25.3333 26.5 25.3333 23.8333C25.3333 21.1667 23.111 20.5 21.9999 20.5H18.6666C17.5555 20.5 15.3333 19.8333 15.3333 17.1667C15.3333 14.5 17.5555 13.8333 18.6666 13.8333H20.3333M20.3333 27.1667H15.3333M20.3333 27.1667V30.5M25.3333 13.8333H20.3333M20.3333 13.8333V10.5M35.3333 20.5C35.3333 28.7843 28.6175 35.5 20.3333 35.5C12.049 35.5 5.33325 28.7843 5.33325 20.5C5.33325 12.2157 12.049 5.5 20.3333 5.5C28.6175 5.5 35.3333 12.2157 35.3333 20.5Z" stroke="#001A72" stroke-width="1.5" stroke-linecap="round" stroke-linejoin="round"/>
</svg>
