<svg width="40" height="41" viewBox="0 0 40 41" fill="none" xmlns="http://www.w3.org/2000/svg">
<path d="M10 16.3333V24.6667M30 16.3333V24.6667M4.25926 11.4259C5.13889 10.963 12.963 10.5 20 10.5C27.037 10.5 34.8611 10.963 35.7407 11.4259C36.6204 11.8889 37.5 16.7963 37.5 20.5C37.5 24.2037 36.6204 29.1111 35.7407 29.5741C34.8611 30.037 27.037 30.5 20 30.5C12.963 30.5 5.13889 30.037 4.25926 29.5741C3.37963 29.1111 2.5 24.2037 2.5 20.5C2.5 16.7963 3.37963 11.8889 4.25926 11.4259ZM24.1667 20.5C24.1667 22.8012 22.3012 24.6667 20 24.6667C17.6988 24.6667 15.8333 22.8012 15.8333 20.5C15.8333 18.1988 17.6988 16.3333 20 16.3333C22.3012 16.3333 24.1667 18.1988 24.1667 20.5Z" stroke="#001A72" stroke-width="1.5" stroke-linecap="round" stroke-linejoin="round"/>
</svg>
