<svg width="41" height="41" viewBox="0 0 41 41" fill="none" xmlns="http://www.w3.org/2000/svg">
<path d="M34.8335 35.5C37.1347 35.5 39.0002 33.6345 39.0002 31.3333C39.0002 27.4543 35.7472 25.8314 32.3335 25.1529M25.6668 18.8333C29.3487 18.8333 32.3335 15.8486 32.3335 12.1667C32.3335 8.48477 29.3487 5.5 25.6668 5.5M6.50016 35.5002H24.8335C27.1347 35.5002 29.0002 33.6347 29.0002 31.3335C29.0002 24.5323 19.0002 24.6669 15.6668 24.6669C12.3335 24.6669 2.3335 24.5323 2.3335 31.3335C2.3335 33.6347 4.19898 35.5002 6.50016 35.5002ZM22.3335 12.1667C22.3335 15.8486 19.3487 18.8333 15.6668 18.8333C11.9849 18.8333 9.00016 15.8486 9.00016 12.1667C9.00016 8.48477 11.9849 5.5 15.6668 5.5C19.3487 5.5 22.3335 8.48477 22.3335 12.1667Z" stroke="#001A72" stroke-width="1.5" stroke-linecap="round" stroke-linejoin="round"/>
</svg>
