<svg width="34" height="32" viewBox="0 0 34 32" fill="none" xmlns="http://www.w3.org/2000/svg">
<path d="M26.3333 18.6667C29.2788 18.6667 31.6666 21.3333 31.6666 23.3333C31.6666 24.4379 30.7712 25.3333 29.6666 25.3333H28.9999M23.6666 14.6667C25.8757 14.6667 27.6666 12.8758 27.6666 10.6667C27.6666 8.45753 25.8757 6.66667 23.6666 6.66667M7.66658 18.6667C4.72107 18.6667 2.33325 21.3333 2.33325 23.3333C2.33325 24.4379 3.22868 25.3333 4.33325 25.3333H4.99992M10.3333 14.6667C8.12411 14.6667 6.33325 12.8758 6.33325 10.6667C6.33325 8.45753 8.12411 6.66667 10.3333 6.66667M22.9999 25.3333H10.9999C9.89535 25.3333 8.99992 24.4379 8.99992 23.3333C8.99992 20 12.9999 18.6667 16.9999 18.6667C20.9999 18.6667 24.9999 20 24.9999 23.3333C24.9999 24.4379 24.1045 25.3333 22.9999 25.3333ZM20.9999 10.6667C20.9999 12.8758 19.2091 14.6667 16.9999 14.6667C14.7908 14.6667 12.9999 12.8758 12.9999 10.6667C12.9999 8.45753 14.7908 6.66667 16.9999 6.66667C19.2091 6.66667 20.9999 8.45753 20.9999 10.6667Z" stroke="#002B6A" stroke-width="3" stroke-linecap="round" stroke-linejoin="round"/>
</svg>
